<svg aria-hidden="true" style="position: absolute; width: 0; height: 0; overflow: hidden;" version="1.1" xmlns="http://www.w3.org/2000/svg" xmlns:xlink="http://www.w3.org/1999/xlink">
<defs>
<symbol id="icon-pip" viewBox="0 0 32 32">
<path d="M24 14.667h-8c-0.733 0-1.333 0.6-1.333 1.333v5.333c0 0.733 0.6 1.333 1.333 1.333h8c0.733 0 1.333-0.6 1.333-1.333v-5.333c0-0.733-0.6-1.333-1.333-1.333zM30.667 25.333v-18.693c0-1.467-1.2-2.64-2.667-2.64h-24c-1.467 0-2.667 1.173-2.667 2.64v18.693c0 1.467 1.2 2.667 2.667 2.667h24c1.467 0 2.667-1.2 2.667-2.667zM26.667 25.36h-21.333c-0.733 0-1.333-0.6-1.333-1.333v-16.067c0-0.733 0.6-1.333 1.333-1.333h21.333c0.733 0 1.333 0.6 1.333 1.333v16.067c0 0.733-0.6 1.333-1.333 1.333z"></path>
</symbol>

<symbol id="icon-dvr" viewBox="0 0 32 32">
<path d="M6 14h2.667v4h-2.667zM23.333 14h2.667v1.333h-2.667zM28 4h-24c-1.48 0-2.667 1.187-2.667 2.667v18.667c0 1.467 1.187 2.667 2.667 2.667h24c1.48 0 2.667-1.2 2.667-2.667v-18.667c0-1.48-1.187-2.667-2.667-2.667zM10.667 18c0 1.107-0.893 2-2 2h-4c-0.373 0-0.667-0.293-0.667-0.667v-6.667c0-0.373 0.293-0.667 0.667-0.667h4c1.107 0 2 0.893 2 2v4zM18.8 13.227l-1.693 5.813c-0.16 0.573-0.693 0.96-1.28 0.96s-1.12-0.387-1.28-0.96l-1.693-5.813c-0.187-0.613 0.28-1.227 0.92-1.227 0.427 0 0.8 0.28 0.92 0.693l1.133 3.88 1.133-3.88c0.12-0.413 0.493-0.693 0.92-0.693 0.64 0 1.107 0.613 0.92 1.227zM28 15.333c0 0.8-0.533 1.533-1.2 1.867l0.84 1.973c0.253 0.6-0.187 1.28-0.84 1.28-0.373 0-0.707-0.213-0.84-0.56l-1.093-2.56h-1.533v1.747c0 0.507-0.413 0.92-0.92 0.92h-0.16c-0.507 0-0.92-0.413-0.92-0.92v-6.227c0-0.467 0.387-0.853 0.853-0.853h3.813c1.107 0 2 0.893 2 2v1.333z"></path>
</symbol>

<symbol id="icon-repeat" viewBox="0 0 32 32">
<title>repeat</title>
<path d="M24 4v7c0 0.547-0.453 1-1 1h-7c-0.406 0-0.766-0.25-0.922-0.625-0.156-0.359-0.078-0.797 0.219-1.078l2.156-2.156c-1.469-1.359-3.406-2.141-5.453-2.141-4.406 0-8 3.594-8 8s3.594 8 8 8c2.484 0 4.781-1.125 6.312-3.109 0.078-0.109 0.219-0.172 0.359-0.187 0.141 0 0.281 0.047 0.391 0.141l2.141 2.156c0.187 0.172 0.187 0.469 0.031 0.672-2.281 2.75-5.656 4.328-9.234 4.328-6.609 0-12-5.391-12-12s5.391-12 12-12c3.078 0 6.062 1.234 8.266 3.313l2.031-2.016c0.281-0.297 0.719-0.375 1.094-0.219 0.359 0.156 0.609 0.516 0.609 0.922z"></path>
</symbol>
<symbol id="icon-rotate-left" viewBox="0 0 32 32">
<title>rotate-left</title>
<path d="M24 14c0 6.609-5.391 12-12 12-3.578 0-6.953-1.578-9.234-4.328-0.156-0.203-0.141-0.5 0.031-0.672l2.141-2.156c0.109-0.094 0.25-0.141 0.391-0.141 0.141 0.016 0.281 0.078 0.359 0.187 1.531 1.984 3.828 3.109 6.312 3.109 4.406 0 8-3.594 8-8s-3.594-8-8-8c-2.047 0-3.984 0.781-5.437 2.141l2.141 2.156c0.297 0.281 0.375 0.719 0.219 1.078-0.156 0.375-0.516 0.625-0.922 0.625h-7c-0.547 0-1-0.453-1-1v-7c0-0.406 0.25-0.766 0.625-0.922 0.359-0.156 0.797-0.078 1.078 0.219l2.031 2.016c2.203-2.078 5.187-3.313 8.266-3.313 6.609 0 12 5.391 12 12z"></path>
</symbol>
<symbol id="icon-replay" viewBox="0 0 32 32">
<title>replay</title>
<path d="M12 5.016q3.328 0 5.672 2.344t2.344 5.625q0 3.328-2.367 5.672t-5.648 2.344-5.648-2.344-2.367-5.672h2.016q0 2.484 1.758 4.242t4.242 1.758 4.242-1.758 1.758-4.242-1.758-4.242-4.242-1.758v4.031l-5.016-5.016 5.016-5.016v4.031z"></path>
</symbol>
<symbol id="icon-bookmark" viewBox="0 0 32 32">
<path d="M28 8c0 0.733-0.6 1.333-1.333 1.333h-1.333v1.333c0 0.733-0.6 1.333-1.333 1.333s-1.333-0.6-1.333-1.333v-1.333h-1.333c-0.733 0-1.333-0.6-1.333-1.333s0.6-1.333 1.333-1.333h1.333v-1.333c0-0.733 0.6-1.333 1.333-1.333s1.333 0.6 1.333 1.333v1.333h1.333c0.733 0 1.333 0.6 1.333 1.333zM25.333 25.973c0 0.96-0.973 1.6-1.853 1.227l-7.48-3.2-7.48 3.2c-0.88 0.387-1.853-0.267-1.853-1.227v-19.307c0-1.467 1.2-2.667 2.667-2.667h9.333c-0.84 1.12-1.333 2.493-1.333 4 0 3.68 2.987 6.667 6.667 6.667 0.453 0 0.907-0.040 1.333-0.133v11.44z"></path>
</symbol>
<symbol id="icon-fullscreen-exit" viewBox="0 0 32 32">
<title>fullscreen-exit</title>
<path d="M24.586 27.414l4.586 4.586 2.828-2.828-4.586-4.586 4.586-4.586h-12v12zM0 12h12v-12l-4.586 4.586-4.539-4.543-2.828 2.828 4.539 4.543zM0 29.172l2.828 2.828 4.586-4.586 4.586 4.586v-12h-12l4.586 4.586zM20 12h12l-4.586-4.586 4.547-4.543-2.828-2.828-4.547 4.543-4.586-4.586z"></path>
</symbol>
<symbol id="icon-fullscreen" viewBox="0 0 32 32">
<title>fullscreen</title>
<path d="M27.414 24.586l-4.586-4.586-2.828 2.828 4.586 4.586-4.586 4.586h12v-12zM12 0h-12v12l4.586-4.586 4.543 4.539 2.828-2.828-4.543-4.539zM12 22.828l-2.828-2.828-4.586 4.586-4.586-4.586v12h12l-4.586-4.586zM32 0h-12l4.586 4.586-4.543 4.539 2.828 2.828 4.543-4.539 4.586 4.586z"></path>
</symbol>
<symbol id="icon-pushpin" viewBox="0 0 32 32">
<path d="M24 10.667h-1.333v-2.667c0-3.68-2.987-6.667-6.667-6.667s-6.667 2.987-6.667 6.667v2.667h-1.333c-1.467 0-2.667 1.2-2.667 2.667v13.333c0 1.467 1.2 2.667 2.667 2.667h16c1.467 0 2.667-1.2 2.667-2.667v-13.333c0-1.467-1.2-2.667-2.667-2.667zM16 22.667c-1.467 0-2.667-1.2-2.667-2.667s1.2-2.667 2.667-2.667 2.667 1.2 2.667 2.667-1.2 2.667-2.667 2.667zM12 10.667v-2.667c0-2.213 1.787-4 4-4s4 1.787 4 4v2.667h-8z"></path>
</symbol>
<symbol id="icon-unlock" viewBox="0 0 32 32">
<path d="M16 17.333c-1.467 0-2.667 1.2-2.667 2.667s1.2 2.667 2.667 2.667 2.667-1.2 2.667-2.667-1.2-2.667-2.667-2.667zM24 10.667h-1.333v-2.667c0-3.68-2.987-6.667-6.667-6.667-3.040 0-5.693 2.053-6.453 5-0.187 0.72 0.24 1.44 0.96 1.627 0.707 0.187 1.44-0.24 1.627-0.96 0.453-1.76 2.040-3 3.867-3 2.2 0 4 1.8 4 4v2.667h-12c-1.467 0-2.667 1.2-2.667 2.667v13.333c0 1.467 1.2 2.667 2.667 2.667h16c1.467 0 2.667-1.2 2.667-2.667v-13.333c0-1.467-1.2-2.667-2.667-2.667zM24 25.333c0 0.733-0.6 1.333-1.333 1.333h-13.333c-0.733 0-1.333-0.6-1.333-1.333v-10.667c0-0.733 0.6-1.333 1.333-1.333h13.333c0.733 0 1.333 0.6 1.333 1.333v10.667z"></path>
</symbol>

<symbol id="icon-cog" viewBox="0 0 32 32">
<title>cog</title>
<path d="M29.181 19.070c-1.679-2.908-0.669-6.634 2.255-8.328l-3.145-5.447c-0.898 0.527-1.943 0.829-3.058 0.829-3.361 0-6.085-2.742-6.085-6.125h-6.289c0.008 1.044-0.252 2.103-0.811 3.070-1.679 2.908-5.411 3.897-8.339 2.211l-3.144 5.447c0.905 0.515 1.689 1.268 2.246 2.234 1.676 2.903 0.672 6.623-2.241 8.319l3.145 5.447c0.895-0.522 1.935-0.82 3.044-0.82 3.35 0 6.067 2.725 6.084 6.092h6.289c-0.003-1.034 0.259-2.080 0.811-3.038 1.676-2.903 5.399-3.894 8.325-2.219l3.145-5.447c-0.899-0.515-1.678-1.266-2.232-2.226zM16 22.479c-3.578 0-6.479-2.901-6.479-6.479s2.901-6.479 6.479-6.479c3.578 0 6.479 2.901 6.479 6.479s-2.901 6.479-6.479 6.479z"></path>
</symbol>

<symbol id="icon-volume" viewBox="0 0 32 32">
<path d="M4 13.333v5.333c0 0.733 0.6 1.333 1.333 1.333h4l4.387 4.387c0.84 0.84 2.28 0.24 2.28-0.947v-14.893c0-1.187-1.44-1.787-2.28-0.947l-4.387 4.4h-4c-0.733 0-1.333 0.6-1.333 1.333zM22 16c0-2.36-1.36-4.387-3.333-5.373v10.733c1.973-0.973 3.333-3 3.333-5.36zM18.667 5.933v0.267c0 0.507 0.333 0.947 0.8 1.133 3.44 1.373 5.867 4.747 5.867 8.667s-2.427 7.293-5.867 8.667c-0.48 0.187-0.8 0.627-0.8 1.133v0.267c0 0.84 0.84 1.427 1.613 1.133 4.52-1.72 7.72-6.080 7.72-11.2s-3.2-9.48-7.72-11.2c-0.773-0.307-1.613 0.293-1.613 1.133z"></path>
</symbol>
<symbol id="icon-volume-mute2" viewBox="0 0 32 32">
<title>volume-mute2</title>
<path d="M30 19.348v2.652h-2.652l-3.348-3.348-3.348 3.348h-2.652v-2.652l3.348-3.348-3.348-3.348v-2.652h2.652l3.348 3.348 3.348-3.348h2.652v2.652l-3.348 3.348 3.348 3.348z"></path>
<path d="M13 30c-0.26 0-0.516-0.102-0.707-0.293l-7.707-7.707h-3.586c-0.552 0-1-0.448-1-1v-10c0-0.552 0.448-1 1-1h3.586l7.707-7.707c0.286-0.286 0.716-0.372 1.090-0.217s0.617 0.519 0.617 0.924v26c0 0.404-0.244 0.769-0.617 0.924-0.124 0.051-0.254 0.076-0.383 0.076z"></path>
</symbol>
<symbol id="icon-meter" viewBox="0 0 32 32">
<path d="M25.947 13.333c-0.143 0.209-0.229 0.468-0.229 0.747 0 0.213 0.050 0.415 0.139 0.594l-0.003-0.008c0.308 0.697 0.55 1.509 0.686 2.356l0.008 0.058c0.085 0.506 0.134 1.089 0.134 1.684 0 1.681-0.389 3.271-1.082 4.686l0.028-0.063c-0.229 0.424-0.67 0.707-1.177 0.707-0.003 0-0.007 0-0.010-0h-16.866c-0.001 0-0.002 0-0.003 0-0.512 0-0.957-0.289-1.18-0.713l-0.003-0.007c-0.693-1.376-1.099-2.999-1.099-4.716 0-5.891 4.776-10.667 10.667-10.667 0.486 0 0.965 0.033 1.434 0.096l-0.055-0.006c1.044 0.125 1.994 0.388 2.88 0.772l-0.066-0.026c0.171 0.086 0.373 0.136 0.586 0.136 0.279 0 0.538-0.086 0.752-0.232l-0.005 0.003c0.364-0.242 0.6-0.65 0.6-1.113 0-0.554-0.337-1.028-0.818-1.23l-0.009-0.003c-1.549-0.682-3.356-1.079-5.255-1.079-7.364 0-13.333 5.97-13.333 13.333 0 2.465 0.669 4.774 1.835 6.755l-0.034-0.062c0.467 0.798 1.318 1.327 2.292 1.333h18.468c0.003 0 0.007 0 0.011 0 0.982 0 1.84-0.531 2.303-1.321l0.007-0.013c1.122-1.912 1.785-4.21 1.785-6.664 0-1.874-0.387-3.658-1.085-5.276l0.033 0.087c-0.218-0.457-0.676-0.767-1.207-0.767-0.472 0-0.886 0.245-1.123 0.615l-0.003 0.005z"></path>
<path d="M14.12 16.787c-0.483 0.483-0.781 1.15-0.781 1.887 0 1.474 1.195 2.668 2.668 2.668 0.737 0 1.404-0.299 1.887-0.781v0l7.547-11.32z"></path>
</symbol>
<symbol id="icon-film" viewBox="0 0 32 32">
<path d="M5.333 8h21.333c0.733 0 1.333 0.6 1.333 1.333v5.333h2.667v-6.667c0-1.467-1.2-2.667-2.667-2.667h-24c-1.467 0-2.667 1.2-2.667 2.667v16c0 1.467 1.2 2.667 2.667 2.667h12v-2.667h-10.667c-0.733 0-1.333-0.6-1.333-1.333v-13.333c0-0.733 0.6-1.333 1.333-1.333z"></path>
<path d="M20 16l-8-5.333v10.667z"></path>
<path d="M30.28 24.573c0.040-0.387 0.053-0.773 0.013-1.147l1.427-1.133c0.133-0.107 0.16-0.28 0.080-0.427l-1.373-2.387c-0.080-0.147-0.253-0.2-0.413-0.147l-1.707 0.667c-0.307-0.227-0.64-0.413-1-0.56l-0.267-1.813c-0.027-0.173-0.16-0.293-0.333-0.293h-2.76c-0.16 0-0.307 0.12-0.333 0.28l-0.267 1.813c-0.347 0.147-0.68 0.347-0.987 0.56l-1.707-0.667c-0.16-0.067-0.333 0-0.413 0.147l-1.373 2.387c-0.080 0.147-0.053 0.32 0.080 0.427l1.427 1.147c-0.040 0.387-0.053 0.773-0.013 1.147l-1.427 1.133c-0.133 0.107-0.16 0.28-0.080 0.427l1.373 2.387c0.080 0.147 0.253 0.2 0.413 0.147l1.693-0.667c0.307 0.227 0.64 0.413 1 0.56l0.267 1.813c0.027 0.16 0.16 0.28 0.333 0.28h2.76c0.16 0 0.307-0.12 0.333-0.28l0.267-1.813c0.347-0.147 0.68-0.347 0.987-0.56l1.707 0.667c0.16 0.067 0.333 0 0.413-0.147l1.373-2.387c0.080-0.147 0.053-0.32-0.080-0.427l-1.413-1.133zM25.333 26c-1.107 0-2-0.893-2-2s0.893-2 2-2 2 0.893 2 2-0.893 2-2 2z"></path>
</symbol>


<symbol id="icon-backward2" viewBox="0 0 32 32">
<title>backward2</title>
<path d="M18 5v10l10-10v22l-10-10v10l-11-11z"></path>
</symbol>

<symbol id="icon-pause" viewBox="0 0 32 32">
<path d="M13.333 21.333c0.733 0 1.333-0.6 1.333-1.333v-8c0-0.733-0.6-1.333-1.333-1.333s-1.333 0.6-1.333 1.333v8c0 0.733 0.6 1.333 1.333 1.333zM16 2.667c-7.36 0-13.333 5.973-13.333 13.333s5.973 13.333 13.333 13.333 13.333-5.973 13.333-13.333-5.973-13.333-13.333-13.333zM16 26.667c-5.88 0-10.667-4.787-10.667-10.667s4.787-10.667 10.667-10.667 10.667 4.787 10.667 10.667-4.787 10.667-10.667 10.667zM18.667 21.333c0.733 0 1.333-0.6 1.333-1.333v-8c0-0.733-0.6-1.333-1.333-1.333s-1.333 0.6-1.333 1.333v8c0 0.733 0.6 1.333 1.333 1.333z"></path>
</symbol>
<symbol id="icon-spinner8" viewBox="0 0 32 32">
<title>spinner8</title>
<path d="M16 32c-4.274 0-8.292-1.664-11.314-4.686s-4.686-7.040-4.686-11.314c0-3.026 0.849-5.973 2.456-8.522 1.563-2.478 3.771-4.48 6.386-5.791l1.344 2.682c-2.126 1.065-3.922 2.693-5.192 4.708-1.305 2.069-1.994 4.462-1.994 6.922 0 7.168 5.832 13 13 13s13-5.832 13-13c0-2.459-0.69-4.853-1.994-6.922-1.271-2.015-3.066-3.643-5.192-4.708l1.344-2.682c2.615 1.31 4.824 3.313 6.386 5.791 1.607 2.549 2.456 5.495 2.456 8.522 0 4.274-1.664 8.292-4.686 11.314s-7.040 4.686-11.314 4.686z"></path>
</symbol>
<symbol id="icon-rewind" viewBox="0 0 32 32">
<title>rewind</title>
<path d="M15.343 16l5.657 5.657-2.828 2.828-8.486-8.485 8.485-8.485 2.829 2.828-5.657 5.657z"></path>
</symbol>
<symbol id="icon-enlarge2" viewBox="0 0 32 32">
<title>enlarge2</title>
<path d="M32 0v13l-5-5-6 6-3-3 6-6-5-5zM14 21l-6 6 5 5h-13v-13l5 5 6-6z"></path>
</symbol>
<symbol id="icon-baseline-bookmarks-24px-1" viewBox="0 0 32 32">
<title>baseline-bookmarks-24px-1</title>
<path d="M25.333 24l2.667 1.333v-21.333c0-1.467-1.2-2.667-2.667-2.667h-13.347c-1.467 0-2.653 1.2-2.653 2.667h13.333c1.467 0 2.667 1.2 2.667 2.667v17.333zM20 6.667h-13.333c-1.467 0-2.667 1.2-2.667 2.667v21.333l9.333-4 9.333 4v-21.333c0-1.467-1.2-2.667-2.667-2.667z"></path>
</symbol>

<symbol id="icon-plays" viewBox="0 0 32 32">
<path d="M16 2.667c-7.36 0-13.333 5.973-13.333 13.333s5.973 13.333 13.333 13.333 13.333-5.973 13.333-13.333-5.973-13.333-13.333-13.333zM12.667 19.56v-7.12c0-1.053 1.173-1.693 2.053-1.12l5.533 3.56c0.813 0.52 0.813 1.72 0 2.24l-5.533 3.56c-0.88 0.573-2.053-0.067-2.053-1.12z"></path>
</symbol>
<symbol id="icon-play" viewBox="0 0 32 32">
<path d="M14.4 21.2l6.227-4.667c0.36-0.267 0.36-0.8 0-1.067l-6.227-4.667c-0.44-0.333-1.067-0.013-1.067 0.533v9.333c0 0.547 0.627 0.867 1.067 0.533zM16 2.667c-7.36 0-13.333 5.973-13.333 13.333s5.973 13.333 13.333 13.333 13.333-5.973 13.333-13.333-5.973-13.333-13.333-13.333zM16 26.667c-5.88 0-10.667-4.787-10.667-10.667s4.787-10.667 10.667-10.667 10.667 4.787 10.667 10.667-4.787 10.667-10.667 10.667z"></path>
</symbol>
 
<symbol id="icon-round-volume_off-24px" viewBox="0 0 32 32">
<title>round-volume_off-24px</title>
<path d="M4.84 4.84c-0.52 0.52-0.52 1.36 0 1.88l4.88 4.88-0.387 0.4h-4c-0.733 0-1.333 0.6-1.333 1.333v5.333c0 0.733 0.6 1.333 1.333 1.333h4l4.387 4.387c0.84 0.84 2.28 0.24 2.28-0.947v-5.56l5.573 5.573c-0.653 0.493-1.36 0.907-2.133 1.213-0.48 0.2-0.773 0.707-0.773 1.227 0 0.96 0.973 1.573 1.853 1.213 1.067-0.44 2.067-1.027 2.96-1.747l1.787 1.787c0.52 0.52 1.36 0.52 1.88 0s0.52-1.36 0-1.88l-20.413-20.427c-0.52-0.52-1.36-0.52-1.893 0zM25.333 16c0 1.093-0.2 2.147-0.547 3.12l2.040 2.040c0.747-1.56 1.173-3.307 1.173-5.16 0-5.107-3.2-9.48-7.707-11.2-0.787-0.307-1.627 0.307-1.627 1.147v0.253c0 0.507 0.333 0.947 0.813 1.133 3.427 1.387 5.853 4.747 5.853 8.667zM13.72 7.613l-0.227 0.227 2.507 2.507v-1.8c0-1.187-1.44-1.773-2.28-0.933zM22 16c0-2.36-1.36-4.387-3.333-5.373v2.387l3.307 3.307c0.013-0.107 0.027-0.213 0.027-0.32z"></path>
</symbol>   
<symbol id="icon-round-volume_up-24px" viewBox="0 0 32 32">
<title>round-volume_up-24px</title>
<path d="M4 13.333v5.333c0 0.733 0.6 1.333 1.333 1.333h4l4.387 4.387c0.84 0.84 2.28 0.24 2.28-0.947v-14.893c0-1.187-1.44-1.787-2.28-0.947l-4.387 4.4h-4c-0.733 0-1.333 0.6-1.333 1.333zM22 16c0-2.36-1.36-4.387-3.333-5.373v10.733c1.973-0.973 3.333-3 3.333-5.36zM18.667 5.933v0.267c0 0.507 0.333 0.947 0.8 1.133 3.44 1.373 5.867 4.747 5.867 8.667s-2.427 7.293-5.867 8.667c-0.48 0.187-0.8 0.627-0.8 1.133v0.267c0 0.84 0.84 1.427 1.613 1.133 4.52-1.72 7.72-6.080 7.72-11.2s-3.2-9.48-7.72-11.2c-0.773-0.307-1.613 0.293-1.613 1.133z"></path>
</symbol> 
<symbol id="icon-round-fullscreen_exit-24px" viewBox="0 0 32 32">
<title>round-fullscreen_exit-24px</title>
<path d="M8 21.333h2.667v2.667c0 0.733 0.6 1.333 1.333 1.333s1.333-0.6 1.333-1.333v-4c0-0.733-0.6-1.333-1.333-1.333h-4c-0.733 0-1.333 0.6-1.333 1.333s0.6 1.333 1.333 1.333zM10.667 10.667h-2.667c-0.733 0-1.333 0.6-1.333 1.333s0.6 1.333 1.333 1.333h4c0.733 0 1.333-0.6 1.333-1.333v-4c0-0.733-0.6-1.333-1.333-1.333s-1.333 0.6-1.333 1.333v2.667zM20 25.333c0.733 0 1.333-0.6 1.333-1.333v-2.667h2.667c0.733 0 1.333-0.6 1.333-1.333s-0.6-1.333-1.333-1.333h-4c-0.733 0-1.333 0.6-1.333 1.333v4c0 0.733 0.6 1.333 1.333 1.333zM21.333 10.667v-2.667c0-0.733-0.6-1.333-1.333-1.333s-1.333 0.6-1.333 1.333v4c0 0.733 0.6 1.333 1.333 1.333h4c0.733 0 1.333-0.6 1.333-1.333s-0.6-1.333-1.333-1.333h-2.667z"></path>
</symbol>
<symbol id="icon-round-fullscreen-24px" viewBox="0 0 32 32">
<title>round-fullscreen-24px</title>
<path d="M8 18.667c-0.733 0-1.333 0.6-1.333 1.333v4c0 0.733 0.6 1.333 1.333 1.333h4c0.733 0 1.333-0.6 1.333-1.333s-0.6-1.333-1.333-1.333h-2.667v-2.667c0-0.733-0.6-1.333-1.333-1.333zM8 13.333c0.733 0 1.333-0.6 1.333-1.333v-2.667h2.667c0.733 0 1.333-0.6 1.333-1.333s-0.6-1.333-1.333-1.333h-4c-0.733 0-1.333 0.6-1.333 1.333v4c0 0.733 0.6 1.333 1.333 1.333zM22.667 22.667h-2.667c-0.733 0-1.333 0.6-1.333 1.333s0.6 1.333 1.333 1.333h4c0.733 0 1.333-0.6 1.333-1.333v-4c0-0.733-0.6-1.333-1.333-1.333s-1.333 0.6-1.333 1.333v2.667zM18.667 8c0 0.733 0.6 1.333 1.333 1.333h2.667v2.667c0 0.733 0.6 1.333 1.333 1.333s1.333-0.6 1.333-1.333v-4c0-0.733-0.6-1.333-1.333-1.333h-4c-0.733 0-1.333 0.6-1.333 1.333z"></path>
</symbol>
<symbol id="icon-round-play_circle_outline-24px" viewBox="0 0 32 32">
<title>round-play_circle_outline-24px</title>
<path d="M14.4 21.2l6.227-4.667c0.36-0.267 0.36-0.8 0-1.067l-6.227-4.667c-0.44-0.333-1.067-0.013-1.067 0.533v9.333c0 0.547 0.627 0.867 1.067 0.533zM16 2.667c-7.36 0-13.333 5.973-13.333 13.333s5.973 13.333 13.333 13.333 13.333-5.973 13.333-13.333-5.973-13.333-13.333-13.333zM16 26.667c-5.88 0-10.667-4.787-10.667-10.667s4.787-10.667 10.667-10.667 10.667 4.787 10.667 10.667-4.787 10.667-10.667 10.667z"></path>
</symbol>
<symbol id="icon-hd" viewBox="0 0 32 32">
<path d="M25.333 4h-18.667c-1.48 0-2.667 1.2-2.667 2.667v18.667c0 1.467 1.187 2.667 2.667 2.667h18.667c1.467 0 2.667-1.2 2.667-2.667v-18.667c0-1.467-1.2-2.667-2.667-2.667zM13.667 20c-0.547 0-1-0.453-1-1v-1.667h-2.667v1.667c0 0.547-0.453 1-1 1s-1-0.453-1-1v-6c0-0.547 0.453-1 1-1s1 0.453 1 1v2.333h2.667v-2.333c0-0.547 0.453-1 1-1s1 0.453 1 1v6c0 0.547-0.453 1-1 1zM18 12h4.667c0.733 0 1.333 0.6 1.333 1.333v5.333c0 0.733-0.6 1.333-1.333 1.333h-4.667c-0.373 0-0.667-0.293-0.667-0.667v-6.667c0-0.373 0.293-0.667 0.667-0.667zM19.333 18h2.667v-4h-2.667v4z"></path>
</symbol>
<symbol id="icon-settings" viewBox="0 0 32 32">
<title>round-settings-24px</title>
<path d="M25.907 17.307c0.053-0.427 0.093-0.853 0.093-1.307s-0.040-0.88-0.093-1.307l2.813-2.2c0.253-0.2 0.32-0.56 0.16-0.853l-2.667-4.613c-0.16-0.293-0.52-0.4-0.813-0.293l-3.32 1.333c-0.693-0.533-1.44-0.973-2.253-1.307l-0.507-3.533c-0.040-0.32-0.32-0.56-0.653-0.56h-5.333c-0.333 0-0.613 0.24-0.653 0.56l-0.507 3.533c-0.813 0.333-1.56 0.787-2.253 1.307l-3.32-1.333c-0.307-0.12-0.653 0-0.813 0.293l-2.667 4.613c-0.173 0.293-0.093 0.653 0.16 0.853l2.813 2.2c-0.053 0.427-0.093 0.867-0.093 1.307s0.040 0.88 0.093 1.307l-2.813 2.2c-0.253 0.2-0.32 0.56-0.16 0.853l2.667 4.613c0.16 0.293 0.52 0.4 0.813 0.293l3.32-1.333c0.693 0.533 1.44 0.973 2.253 1.307l0.507 3.533c0.040 0.32 0.32 0.56 0.653 0.56h5.333c0.333 0 0.613-0.24 0.653-0.56l0.507-3.533c0.813-0.333 1.56-0.787 2.253-1.307l3.32 1.333c0.307 0.12 0.653 0 0.813-0.293l2.667-4.613c0.16-0.293 0.093-0.653-0.16-0.853l-2.813-2.2zM16 20.667c-2.573 0-4.667-2.093-4.667-4.667s2.093-4.667 4.667-4.667 4.667 2.093 4.667 4.667-2.093 4.667-4.667 4.667z"></path>
</symbol>
<symbol id="icon-round-collections_bookmark-24px" viewBox="0 0 32 32">
<title>round-collections_bookmark-24px</title>
<path d="M22.667 26.667h-16c-0.733 0-1.333-0.6-1.333-1.333v-16c0-0.733-0.6-1.333-1.333-1.333s-1.333 0.6-1.333 1.333v17.333c0 1.467 1.2 2.667 2.667 2.667h17.333c0.733 0 1.333-0.6 1.333-1.333s-0.6-1.333-1.333-1.333zM26.667 2.667h-16c-1.467 0-2.667 1.2-2.667 2.667v16c0 1.467 1.2 2.667 2.667 2.667h16c1.467 0 2.667-1.2 2.667-2.667v-16c0-1.467-1.2-2.667-2.667-2.667zM26.667 16l-3.333-2-3.333 2v-10.667h6.667v10.667z"></path>
</symbol>
<symbol id="icon-round-picture_in_picture_alt-24px" viewBox="0 0 32 32">
<title>round-picture_in_picture_alt-24px</title>
<path d="M24 14.667h-8c-0.733 0-1.333 0.6-1.333 1.333v5.333c0 0.733 0.6 1.333 1.333 1.333h8c0.733 0 1.333-0.6 1.333-1.333v-5.333c0-0.733-0.6-1.333-1.333-1.333zM30.667 25.333v-18.693c0-1.467-1.2-2.64-2.667-2.64h-24c-1.467 0-2.667 1.173-2.667 2.64v18.693c0 1.467 1.2 2.667 2.667 2.667h24c1.467 0 2.667-1.2 2.667-2.667zM26.667 25.36h-21.333c-0.733 0-1.333-0.6-1.333-1.333v-16.067c0-0.733 0.6-1.333 1.333-1.333h21.333c0.733 0 1.333 0.6 1.333 1.333v16.067c0 0.733-0.6 1.333-1.333 1.333z"></path>
</symbol>
<symbol id="icon-palette" viewBox="0 0 32 32">
<path d="M16 2.667c-7.347 0-13.333 5.987-13.333 13.333s5.987 13.333 13.333 13.333c1.84 0 3.333-1.493 3.333-3.333 0-0.813-0.307-1.6-0.853-2.227-0.107-0.133-0.173-0.28-0.173-0.44 0-0.373 0.293-0.667 0.667-0.667h2.36c4.413 0 8-3.587 8-8 0-6.613-5.987-12-13.333-12zM23.333 17.333c-1.107 0-2-0.893-2-2s0.893-2 2-2 2 0.893 2 2c0 1.107-0.893 2-2 2zM19.333 12c-1.107 0-2-0.893-2-2s0.893-2 2-2 2 0.893 2 2c0 1.107-0.893 2-2 2zM6.667 15.333c0-1.107 0.893-2 2-2s2 0.893 2 2c0 1.107-0.893 2-2 2s-2-0.893-2-2zM14.667 10c0 1.107-0.893 2-2 2s-2-0.893-2-2c0-1.107 0.893-2 2-2s2 0.893 2 2z"></path>
</symbol>

<symbol id="icon-round-cached-24px" viewBox="0 0 32 32">
<title>round-cached-24px</title>
<path d="M24.867 11.133l-3.72 3.72c-0.427 0.427-0.133 1.147 0.467 1.147h2.387c0 4.413-3.587 8-8 8-1.053 0-2.080-0.2-3-0.587-0.48-0.2-1.027-0.053-1.387 0.307-0.68 0.68-0.44 1.827 0.453 2.187 1.213 0.493 2.547 0.76 3.933 0.76 5.893 0 10.667-4.773 10.667-10.667h2.387c0.6 0 0.893-0.72 0.467-1.133l-3.72-3.72c-0.253-0.267-0.68-0.267-0.933-0.013zM8 16c0-4.413 3.587-8 8-8 1.053 0 2.080 0.2 3 0.587 0.48 0.2 1.027 0.053 1.387-0.307 0.68-0.68 0.44-1.827-0.453-2.187-1.213-0.493-2.547-0.76-3.933-0.76-5.893 0-10.667 4.773-10.667 10.667h-2.387c-0.6 0-0.893 0.72-0.467 1.133l3.72 3.72c0.267 0.267 0.68 0.267 0.947 0l3.72-3.72c0.413-0.413 0.12-1.133-0.48-1.133h-2.387z"></path>
</symbol>



<symbol id="icon-backward" viewBox="0 0 32 32">
<path d="M15.987 6.667v-3.72c0-0.6-0.72-0.893-1.133-0.467l-5.053 5.053c-0.267 0.267-0.267 0.68 0 0.947l5.053 5.053c0.413 0.413 1.133 0.12 1.133-0.467v-3.733c4.973 0 8.907 4.56 7.813 9.72-0.627 3.027-3.080 5.467-6.093 6.093-4.76 1-9-2.267-9.64-6.68-0.080-0.64-0.64-1.133-1.307-1.133-0.8 0-1.44 0.707-1.333 1.507 0.827 5.853 6.4 10.187 12.707 8.96 4.16-0.813 7.507-4.16 8.32-8.32 1.32-6.84-3.867-12.813-10.467-12.813zM14.52 21.333h-1.133v-4.347l-1.347 0.413v-0.92l2.36-0.84h0.12v5.693zM20.227 18.987c0 0.427-0.040 0.8-0.133 1.093s-0.227 0.56-0.387 0.76-0.373 0.347-0.6 0.44-0.493 0.133-0.787 0.133-0.547-0.040-0.787-0.133-0.44-0.24-0.613-0.44-0.307-0.453-0.4-0.76-0.147-0.667-0.147-1.093v-0.987c0-0.427 0.040-0.8 0.133-1.093s0.227-0.56 0.387-0.76 0.373-0.347 0.6-0.44 0.493-0.133 0.787-0.133 0.547 0.040 0.787 0.133 0.44 0.24 0.613 0.44 0.307 0.453 0.4 0.76 0.147 0.667 0.147 1.093v0.987zM19.093 17.84c0-0.253-0.013-0.467-0.053-0.64s-0.093-0.307-0.16-0.413-0.147-0.187-0.253-0.227-0.213-0.067-0.333-0.067-0.24 0.027-0.333 0.067-0.187 0.12-0.253 0.227-0.12 0.24-0.16 0.413-0.053 0.387-0.053 0.64v1.293c0 0.253 0.013 0.467 0.053 0.64s0.093 0.32 0.16 0.427 0.147 0.187 0.253 0.227 0.213 0.067 0.333 0.067 0.24-0.027 0.333-0.067 0.187-0.12 0.253-0.227 0.12-0.253 0.147-0.427 0.053-0.387 0.053-0.64v-1.293z"></path>
</symbol>

<symbol id="icon-forward" viewBox="0 0 32 32">
<path d="M25.227 17.333c-0.667 0-1.213 0.493-1.307 1.147-0.64 4.493-5.027 7.787-9.893 6.613-3-0.72-5.213-3.027-5.853-6.040-1.080-5.16 2.853-9.72 7.827-9.72v3.72c0 0.6 0.72 0.893 1.133 0.467l5.053-5.053c0.267-0.267 0.267-0.68 0-0.947l-5.053-5.053c-0.413-0.413-1.133-0.12-1.133 0.48v3.72c-6.587 0-11.787 5.973-10.453 12.8 0.8 4.147 3.867 7.333 7.987 8.253 6.44 1.44 12.2-2.933 13.027-8.893 0.12-0.787-0.533-1.493-1.333-1.493zM14.533 21.333v-5.693h-0.12l-2.36 0.84v0.92l1.347-0.413v4.347zM19.093 15.707c-0.24-0.093-0.493-0.133-0.787-0.133s-0.547 0.040-0.787 0.133-0.44 0.24-0.6 0.44-0.307 0.453-0.387 0.76-0.133 0.667-0.133 1.093v0.987c0 0.427 0.053 0.8 0.147 1.093s0.227 0.56 0.4 0.76 0.373 0.347 0.613 0.44 0.493 0.133 0.787 0.133 0.547-0.040 0.787-0.133 0.44-0.24 0.6-0.44 0.293-0.453 0.387-0.76 0.133-0.667 0.133-1.093v-0.987c0-0.427-0.053-0.8-0.147-1.093s-0.227-0.56-0.4-0.76-0.387-0.347-0.613-0.44zM19.107 19.133c0 0.253-0.013 0.467-0.053 0.64s-0.080 0.32-0.147 0.427-0.147 0.187-0.253 0.227-0.213 0.067-0.333 0.067-0.24-0.027-0.333-0.067-0.187-0.12-0.253-0.227-0.12-0.253-0.16-0.427-0.053-0.387-0.053-0.64v-1.293c0-0.253 0.013-0.467 0.053-0.64s0.080-0.307 0.16-0.413 0.147-0.187 0.253-0.227 0.213-0.067 0.333-0.067 0.24 0.027 0.333 0.067 0.187 0.12 0.253 0.227 0.12 0.24 0.16 0.413 0.053 0.387 0.053 0.64v1.293z"></path>
</symbol>
<symbol id="icon-theme" viewBox="0 0 32 32">
<path d="M14.68 4.067c-6 0.653-10.68 5.747-10.68 11.933 0 6.627 5.373 12 12 12 6.173 0 11.267-4.667 11.933-10.667 0.12-1.053-1.040-1.893-2.053-1.267-1.12 0.72-2.453 1.133-3.88 1.133-3.973 0-7.2-3.227-7.2-7.2 0-1.413 0.413-2.747 1.12-3.853 0.6-0.893-0.053-2.173-1.24-2.080z"></path>
</symbol>
</defs>
</svg>
